<mxfile host="app.diagrams.net" modified="2023-10-05T18:47:04.290Z" agent="Mozilla/5.0 (Windows NT 10.0; Win64; x64) AppleWebKit/537.36 (KHTML, like Gecko) Chrome/116.0.0.0 Safari/537.36 OPR/102.0.0.0" etag="40XFUV-vpHXjyxmz7ISq" version="21.7.4" type="device">
  <diagram name="1 oldal" id="geJEnST-hWt4YgOw7uYo">
    <mxGraphModel dx="431" dy="764" grid="1" gridSize="10" guides="1" tooltips="1" connect="1" arrows="1" fold="1" page="1" pageScale="1" pageWidth="827" pageHeight="1169" math="0" shadow="0">
      <root>
        <mxCell id="0" />
        <mxCell id="1" parent="0" />
        <mxCell id="nRuELLrUrbEC63XRRZ3P-3" value="" style="edgeStyle=orthogonalEdgeStyle;rounded=0;orthogonalLoop=1;jettySize=auto;html=1;" edge="1" parent="1" source="nRuELLrUrbEC63XRRZ3P-1" target="nRuELLrUrbEC63XRRZ3P-2">
          <mxGeometry relative="1" as="geometry" />
        </mxCell>
        <mxCell id="nRuELLrUrbEC63XRRZ3P-1" value="start" style="ellipse;whiteSpace=wrap;html=1;" vertex="1" parent="1">
          <mxGeometry x="140" y="30" width="120" height="80" as="geometry" />
        </mxCell>
        <mxCell id="nRuELLrUrbEC63XRRZ3P-5" value="" style="edgeStyle=orthogonalEdgeStyle;rounded=0;orthogonalLoop=1;jettySize=auto;html=1;" edge="1" parent="1" source="nRuELLrUrbEC63XRRZ3P-2" target="nRuELLrUrbEC63XRRZ3P-4">
          <mxGeometry relative="1" as="geometry" />
        </mxCell>
        <mxCell id="nRuELLrUrbEC63XRRZ3P-2" value="lista = [] , n:egÃ©sz" style="shape=parallelogram;perimeter=parallelogramPerimeter;whiteSpace=wrap;html=1;fixedSize=1;" vertex="1" parent="1">
          <mxGeometry x="130" y="140" width="140" height="60" as="geometry" />
        </mxCell>
        <mxCell id="nRuELLrUrbEC63XRRZ3P-7" value="" style="edgeStyle=orthogonalEdgeStyle;rounded=0;orthogonalLoop=1;jettySize=auto;html=1;" edge="1" parent="1" source="nRuELLrUrbEC63XRRZ3P-4" target="nRuELLrUrbEC63XRRZ3P-6">
          <mxGeometry relative="1" as="geometry" />
        </mxCell>
        <mxCell id="nRuELLrUrbEC63XRRZ3P-4" value="maxe = lista[0] , i = 1" style="whiteSpace=wrap;html=1;" vertex="1" parent="1">
          <mxGeometry x="140" y="230" width="120" height="60" as="geometry" />
        </mxCell>
        <mxCell id="nRuELLrUrbEC63XRRZ3P-11" value="" style="edgeStyle=orthogonalEdgeStyle;rounded=0;orthogonalLoop=1;jettySize=auto;html=1;" edge="1" parent="1" source="nRuELLrUrbEC63XRRZ3P-6" target="nRuELLrUrbEC63XRRZ3P-10">
          <mxGeometry relative="1" as="geometry" />
        </mxCell>
        <mxCell id="nRuELLrUrbEC63XRRZ3P-20" style="edgeStyle=orthogonalEdgeStyle;rounded=0;orthogonalLoop=1;jettySize=auto;html=1;" edge="1" parent="1" source="nRuELLrUrbEC63XRRZ3P-6" target="nRuELLrUrbEC63XRRZ3P-21">
          <mxGeometry relative="1" as="geometry">
            <mxPoint x="70" y="680" as="targetPoint" />
            <Array as="points">
              <mxPoint x="80" y="380" />
              <mxPoint x="80" y="381" />
              <mxPoint x="30" y="381" />
            </Array>
          </mxGeometry>
        </mxCell>
        <mxCell id="nRuELLrUrbEC63XRRZ3P-6" value="i &amp;lt; n-1" style="rhombus;whiteSpace=wrap;html=1;" vertex="1" parent="1">
          <mxGeometry x="140" y="320" width="120" height="120" as="geometry" />
        </mxCell>
        <mxCell id="nRuELLrUrbEC63XRRZ3P-13" value="" style="edgeStyle=orthogonalEdgeStyle;rounded=0;orthogonalLoop=1;jettySize=auto;html=1;" edge="1" parent="1" source="nRuELLrUrbEC63XRRZ3P-10" target="nRuELLrUrbEC63XRRZ3P-12">
          <mxGeometry relative="1" as="geometry" />
        </mxCell>
        <mxCell id="nRuELLrUrbEC63XRRZ3P-10" value="lista[i] &amp;gt; maxe" style="rhombus;whiteSpace=wrap;html=1;" vertex="1" parent="1">
          <mxGeometry x="340" y="320" width="120" height="120" as="geometry" />
        </mxCell>
        <mxCell id="nRuELLrUrbEC63XRRZ3P-16" value="" style="edgeStyle=orthogonalEdgeStyle;rounded=0;orthogonalLoop=1;jettySize=auto;html=1;" edge="1" parent="1" source="nRuELLrUrbEC63XRRZ3P-12" target="nRuELLrUrbEC63XRRZ3P-15">
          <mxGeometry relative="1" as="geometry" />
        </mxCell>
        <mxCell id="nRuELLrUrbEC63XRRZ3P-12" value="maxe = lista[i]" style="whiteSpace=wrap;html=1;" vertex="1" parent="1">
          <mxGeometry x="340" y="525" width="120" height="60" as="geometry" />
        </mxCell>
        <mxCell id="nRuELLrUrbEC63XRRZ3P-17" value="" style="edgeStyle=orthogonalEdgeStyle;rounded=0;orthogonalLoop=1;jettySize=auto;html=1;" edge="1" parent="1" source="nRuELLrUrbEC63XRRZ3P-15" target="nRuELLrUrbEC63XRRZ3P-6">
          <mxGeometry relative="1" as="geometry" />
        </mxCell>
        <mxCell id="nRuELLrUrbEC63XRRZ3P-15" value="i++" style="whiteSpace=wrap;html=1;" vertex="1" parent="1">
          <mxGeometry x="140" y="525" width="120" height="60" as="geometry" />
        </mxCell>
        <mxCell id="nRuELLrUrbEC63XRRZ3P-18" value="I" style="text;html=1;align=center;verticalAlign=middle;resizable=0;points=[];autosize=1;strokeColor=none;fillColor=none;" vertex="1" parent="1">
          <mxGeometry x="230" y="328" width="30" height="30" as="geometry" />
        </mxCell>
        <mxCell id="nRuELLrUrbEC63XRRZ3P-19" value="H" style="text;html=1;align=center;verticalAlign=middle;resizable=0;points=[];autosize=1;strokeColor=none;fillColor=none;" vertex="1" parent="1">
          <mxGeometry x="135" y="328" width="30" height="30" as="geometry" />
        </mxCell>
        <mxCell id="nRuELLrUrbEC63XRRZ3P-23" value="" style="edgeStyle=orthogonalEdgeStyle;rounded=0;orthogonalLoop=1;jettySize=auto;html=1;" edge="1" parent="1" source="nRuELLrUrbEC63XRRZ3P-21" target="nRuELLrUrbEC63XRRZ3P-22">
          <mxGeometry relative="1" as="geometry" />
        </mxCell>
        <mxCell id="nRuELLrUrbEC63XRRZ3P-21" value="ki: maxe" style="shape=parallelogram;perimeter=parallelogramPerimeter;whiteSpace=wrap;html=1;fixedSize=1;" vertex="1" parent="1">
          <mxGeometry x="90" y="650" width="120" height="60" as="geometry" />
        </mxCell>
        <mxCell id="nRuELLrUrbEC63XRRZ3P-22" value="end" style="ellipse;whiteSpace=wrap;html=1;" vertex="1" parent="1">
          <mxGeometry x="260" y="640" width="120" height="80" as="geometry" />
        </mxCell>
      </root>
    </mxGraphModel>
  </diagram>
</mxfile>
